<?xml version="1.0" standalone="no"?>
<!DOCTYPE svg PUBLIC "-//W3C//DTD SVG 20010904//EN"
 "http://www.w3.org/TR/2001/REC-SVG-20010904/DTD/svg10.dtd">
<svg version="1.0" xmlns="http://www.w3.org/2000/svg"
 width="536.000000pt" height="465.000000pt" viewBox="0 0 536.000000 465.000000"
 preserveAspectRatio="xMidYMid meet">

<g transform="translate(0.000000,465.000000) scale(0.100000,-0.100000)"
fill="#000000" stroke="none">
<path d="M2450 4360 c-30 -5 -91 -13 -134 -19 -96 -13 -122 -29 -136 -81 -15
-56 -47 -63 -96 -20 -44 38 -53 37 -208 -27 -174 -71 -186 -80 -186 -138 0
-67 -25 -77 -107 -44 -39 16 -48 12 -165 -77 -165 -125 -163 -123 -163 -195
l0 -64 -64 -1 c-63 -2 -66 -2 -103 -45 -66 -77 -178 -238 -178 -257 0 -10 7
-27 15 -38 18 -23 19 -66 3 -82 -7 -7 -31 -12 -53 -12 -57 0 -65 -10 -136
-180 -12 -30 -24 -57 -27 -60 -2 -3 -47 -8 -100 -11 -111 -6 -167 -27 -191
-72 -33 -60 -44 -67 -134 -86 -130 -27 -135 -42 -12 -39 l100 3 3 -302 c1
-191 6 -303 12 -303 6 0 10 -13 10 -30 0 -16 -4 -30 -10 -30 -12 0 -14 -147
-1 -152 12 -4 19 -223 6 -223 -5 0 -16 -4 -23 -9 -8 -5 -51 -5 -95 -1 -74 6
-80 5 -67 -9 8 -8 47 -20 85 -25 74 -11 90 -22 127 -89 25 -47 68 -64 184 -71
56 -3 104 -8 106 -11 2 -3 23 -50 48 -105 54 -124 63 -135 111 -135 63 0 84
-36 54 -94 -8 -15 -15 -34 -15 -42 0 -16 100 -159 165 -235 46 -54 46 -54 113
-59 l67 -5 3 -67 3 -67 92 -74 c173 -138 208 -155 251 -122 41 31 86 4 86 -52
0 -17 8 -40 18 -51 19 -22 226 -115 295 -133 44 -11 47 -10 86 21 37 30 42 32
62 18 12 -7 27 -29 33 -48 14 -43 42 -57 143 -71 43 -6 109 -14 147 -20 89
-11 109 -5 140 42 15 22 34 39 45 39 10 0 36 -21 56 -46 l38 -46 61 6 c256 27
326 49 326 102 0 20 32 54 51 54 3 0 23 -14 44 -30 32 -25 44 -30 69 -24 65
14 277 105 309 132 10 9 17 29 17 52 0 25 7 43 21 55 18 17 24 17 52 6 55 -23
74 -23 103 -5 52 33 168 121 214 162 44 40 45 41 45 104 l0 63 67 3 67 3 81
100 c135 168 145 191 113 247 -14 25 -15 35 -5 56 10 22 18 26 55 26 53 0 63
10 106 105 17 39 39 86 48 105 l18 35 95 6 c118 7 155 23 198 89 32 48 70 70
126 70 26 0 99 21 111 33 6 5 -30 8 -95 5 l-105 -3 -7 510 c-4 327 -3 516 3
527 9 17 19 18 110 12 63 -4 99 -3 99 3 0 11 -66 33 -99 33 -48 0 -114 25
-129 50 -51 82 -90 102 -212 109 l-95 6 -25 50 c-14 28 -36 75 -49 105 -34 79
-47 90 -98 90 -37 0 -45 4 -55 25 -9 21 -8 32 5 61 9 19 17 42 17 51 0 31
-197 291 -224 294 -6 1 -36 2 -66 3 l-55 1 -1 55 c-1 30 -2 60 -3 67 0 6 -46
48 -102 93 -164 132 -199 148 -243 115 -44 -33 -86 -6 -86 55 0 21 -6 45 -14
53 -18 17 -268 123 -314 132 -29 6 -39 3 -67 -25 -46 -44 -80 -37 -95 20 -6
22 -21 46 -33 54 -31 20 -323 62 -357 51 -10 -3 -30 -23 -44 -45 -32 -49 -57
-51 -87 -7 -42 61 -52 63 -169 47z m465 -549 c438 -77 825 -336 1054 -704 45
-72 47 -97 9 -97 -32 0 -38 6 -88 80 -25 36 -65 90 -91 120 -25 30 -54 66 -65
79 -10 13 -57 57 -103 98 -395 348 -938 461 -1429 298 -326 -109 -573 -297
-771 -587 -45 -65 -63 -84 -84 -86 -42 -5 -43 20 -2 84 179 280 429 494 718
616 39 16 86 34 102 39 17 4 55 16 85 25 187 55 465 70 665 35z m-232 -108
c-13 -2 -35 -2 -50 0 -16 2 -5 4 22 4 28 0 40 -2 28 -4z m-135 -10 c-10 -2
-28 -2 -40 0 -13 2 -5 4 17 4 22 1 32 -1 23 -4z m265 0 c-7 -2 -21 -2 -30 0
-10 3 -4 5 12 5 17 0 24 -2 18 -5z m-358 -13 c-11 -5 -36 -8 -55 -8 l-35 0 30
8 c17 4 41 8 55 8 23 1 23 0 5 -8z m475 0 c23 -7 22 -8 -10 -8 -19 0 -44 3
-55 8 -17 7 -15 9 10 8 17 0 41 -4 55 -8z m-600 -25 c-41 -16 -78 -19 -64 -6
9 10 44 18 79 19 12 0 5 -5 -15 -13z m657 9 c-3 -3 -12 -4 -19 -1 -8 3 -5 6 6
6 11 1 17 -2 13 -5z m63 -14 c12 -8 12 -10 -5 -10 -11 0 -27 5 -35 10 -12 8
-12 10 5 10 11 0 27 -5 35 -10z m-845 -30 c-28 -12 -37 -12 -30 0 3 6 16 10
28 9 21 0 21 -1 2 -9z m922 4 c-3 -3 -12 -4 -19 -1 -8 3 -5 6 6 6 11 1 17 -2
13 -5z m-972 -24 c-3 -5 -12 -10 -20 -10 -12 0 -161 -73 -210 -103 -196 -120
-385 -323 -504 -539 l-32 -58 123 0 123 0 30 48 c16 26 32 49 35 52 3 3 21 25
41 50 20 25 79 87 130 138 94 95 162 138 319 202 30 12 64 26 75 30 93 39 273
70 400 70 99 0 265 -27 361 -59 66 -22 278 -116 305 -135 81 -57 261 -250 331
-355 l28 -41 120 0 120 0 -30 58 c-42 79 -120 195 -183 269 -46 54 -159 158
-214 196 -18 12 -33 26 -33 30 0 17 99 -61 181 -142 94 -94 167 -184 219 -273
37 -62 48 -68 128 -68 51 0 54 -1 68 -35 l14 -35 370 0 370 0 0 -34 c0 -32 3
-35 33 -38 l32 -3 0 -525 0 -524 -30 -1 c-25 0 -31 -4 -33 -27 l-3 -28 -364 0
-363 0 -17 -37 c-24 -54 -41 -63 -109 -63 l-61 0 -30 -58 c-57 -109 -211 -285
-324 -371 -152 -115 -236 -165 -349 -208 -253 -95 -497 -129 -704 -99 -125 18
-150 24 -288 68 -313 98 -590 316 -759 596 l-43 72 -57 0 c-65 0 -82 10 -106
63 l-17 37 -363 0 -364 0 -3 28 c-2 22 -7 26 -26 24 -53 -8 -52 -20 -52 532 0
281 4 516 8 522 4 6 22 19 40 28 17 9 32 23 32 31 0 13 51 15 370 15 l370 0
13 28 c16 38 24 42 89 42 64 0 61 -2 120 90 103 164 251 312 422 424 140 91
294 163 271 126z m1061 -6 c68 -27 118 -54 144 -75 23 -19 -32 5 -132 57 -14
8 -33 14 -41 14 -9 0 -19 5 -22 10 -9 14 7 12 51 -6z m219 -119 c17 -14 26
-25 20 -25 -5 1 -23 12 -40 25 -16 14 -25 25 -20 25 6 -1 24 -12 40 -25z
m-2751 -514 c9 -14 -15 -27 -79 -40 -33 -7 -80 -17 -104 -22 -49 -11 -60 -6
-45 19 20 33 75 52 151 52 39 0 74 -4 77 -9z m4132 -7 c33 -16 61 -50 50 -61
-2 -3 -26 0 -53 6 -26 7 -75 18 -108 25 -41 9 -61 18 -63 29 -3 15 7 17 68 17
46 0 84 -6 106 -16z m-4306 -1273 c19 -5 62 -14 95 -21 111 -24 111 -50 0 -50
-81 0 -114 9 -145 40 -38 38 -21 49 50 31z m4358 -7 c-7 -38 -56 -59 -144 -63
-71 -3 -84 -1 -84 13 0 16 36 29 145 51 83 17 87 17 83 -1z m-3492 -112 c6 -4
23 -27 37 -52 117 -200 390 -442 622 -550 90 -42 243 -94 325 -109 74 -15 298
-29 389 -24 253 11 503 96 736 250 130 86 296 252 389 391 61 89 73 102 98
102 16 0 31 -6 34 -14 7 -17 -62 -131 -134 -221 -216 -269 -485 -445 -822
-539 -249 -69 -574 -62 -837 18 -283 86 -547 261 -739 491 -95 115 -168 229
-160 251 6 15 44 19 62 6z"/>
<path d="M748 2594 c-27 -8 -30 -52 -23 -305 9 -278 3 -264 115 -257 52 3 76
10 108 31 79 52 105 151 57 221 -30 44 -30 42 -5 73 15 19 20 41 20 85 0 77
-18 111 -72 133 -43 17 -167 29 -200 19z m172 -149 c0 -15 -34 -38 -43 -29 -2
3 -3 14 0 25 6 22 43 26 43 4z m10 -212 c3 -3 -8 -16 -25 -29 -30 -24 -30 -24
-33 -3 -6 35 5 51 30 43 13 -3 25 -9 28 -11z"/>
<path d="M1093 2590 c-23 -9 -23 -10 -23 -262 0 -305 -2 -298 96 -298 166 0
270 152 180 265 l-23 29 20 28 c14 18 22 48 25 85 7 105 -47 151 -188 159 -36
2 -75 0 -87 -6z m170 -137 c8 -7 -21 -43 -35 -43 -10 0 -11 34 -1 43 8 9 28 9
36 0z m-3 -213 c12 -7 11 -13 -10 -34 -30 -33 -40 -33 -40 2 0 42 17 53 50 32z"/>
<path d="M2645 2569 c-52 -46 -80 -142 -79 -279 0 -179 44 -260 141 -260 36 0
50 6 74 29 26 26 29 36 29 90 0 65 -9 74 -42 44 -17 -16 -20 -16 -36 1 -14 13
-17 35 -17 114 0 120 12 147 59 138 33 -6 33 -6 40 40 7 52 -5 74 -56 100 -42
22 -74 17 -113 -17z"/>
<path d="M3709 2577 c-19 -12 -45 -44 -59 -72 -23 -47 -25 -60 -25 -200 0
-133 2 -155 22 -197 27 -58 62 -78 141 -78 52 0 64 4 90 28 43 41 62 115 63
248 1 163 -27 246 -95 278 -47 22 -97 20 -137 -7z m85 -128 c13 -126 3 -329
-15 -329 -5 0 -9 88 -9 195 0 192 11 254 24 134z"/>
<path d="M1834 2575 c-9 -23 0 -512 9 -522 9 -8 127 -7 135 2 3 2 7 28 10 57
l5 52 26 -69 c15 -37 32 -70 38 -72 7 -3 32 15 58 38 54 50 56 71 19 158 -26
61 -26 61 -8 98 25 51 25 165 1 210 -27 51 -61 63 -182 63 -84 0 -107 -3 -111
-15z m180 -133 c7 -57 -4 -124 -22 -130 -9 -3 -12 14 -12 61 0 120 22 166 34
69z"/>
<path d="M2206 2582 c-11 -19 -9 -435 3 -479 19 -69 68 -90 136 -57 24 11 39
13 52 5 12 -6 40 -7 69 -3 l49 7 9 248 c7 193 6 250 -4 262 -16 19 -139 22
-141 3 -1 -7 -1 -95 1 -196 2 -179 -3 -212 -31 -212 -5 0 -9 89 -9 199 0 158
-3 201 -14 210 -19 16 -112 26 -120 13z"/>
<path d="M3058 2518 l-43 -73 -3 68 -3 67 -73 0 c-62 0 -74 -3 -78 -17 -6 -22
1 -483 7 -501 3 -9 24 -12 72 -10 l68 3 5 53 5 54 33 -67 c19 -38 38 -65 45
-62 17 5 87 99 87 116 0 8 -20 51 -44 96 l-45 81 41 68 42 68 -18 52 c-19 54
-33 76 -47 76 -4 0 -27 -33 -51 -72z"/>
<path d="M3428 2582 c-96 -3 -98 -3 -104 -29 -4 -14 -3 -51 2 -82 l9 -56 43
-3 c51 -4 51 -7 -9 -121 -38 -71 -40 -77 -37 -155 l3 -81 114 -3 c129 -3 131
-2 131 68 0 76 -8 90 -46 90 -19 0 -34 3 -34 7 0 4 17 46 37 93 34 77 37 94
38 174 0 106 5 103 -147 98z"/>
<path d="M4002 2582 c-9 -7 -12 -67 -10 -268 l3 -259 60 0 60 0 5 75 5 75 29
-77 28 -78 58 0 c51 0 58 2 64 23 8 29 8 471 0 491 -5 12 -20 16 -59 16 -30 0
-56 -4 -60 -10 -3 -5 -9 -40 -12 -77 l-6 -67 -14 39 c-43 129 -40 125 -91 125
-26 0 -53 -4 -60 -8z"/>
<path d="M4356 2564 c-8 -21 -8 -394 0 -461 l7 -53 113 0 114 0 0 33 c0 65 -9
77 -52 77 l-39 0 3 43 c3 42 3 42 46 45 45 3 47 7 42 77 -2 37 0 36 -50 42
l-41 6 3 41 c3 35 6 41 28 44 66 7 70 10 70 51 0 71 0 71 -125 71 -94 0 -114
-3 -119 -16z"/>
<path d="M1518 2533 c-2 -21 -1 -59 0 -85 4 -42 6 -47 30 -50 l27 -3 5 -170 5
-170 59 -3 c32 -2 63 1 67 5 4 4 9 75 10 156 1 180 3 187 40 187 l29 0 0 85 0
85 -134 0 -135 0 -3 -37z"/>
<path d="M1390 1699 c0 -9 16 -40 74 -144 34 -60 131 -181 206 -256 355 -356
845 -491 1340 -369 114 29 149 40 155 50 4 6 13 10 21 10 14 0 92 36 154 71
50 28 125 73 130 79 3 3 32 27 65 52 77 58 207 194 266 278 56 80 129 207 129
226 0 11 -23 14 -117 14 l-118 0 -27 -48 c-33 -59 -112 -159 -186 -235 -73
-75 -154 -132 -267 -189 -408 -205 -844 -181 -1217 68 -99 66 -207 164 -263
239 -17 22 -34 45 -40 51 -5 6 -23 34 -40 62 l-30 52 -117 0 c-76 0 -118 -4
-118 -11z"/>
</g>
</svg>
